<svg width="16" height="16" viewBox="0 0 16 16" fill="none" xmlns="http://www.w3.org/2000/svg">
<mask id="mask0_14835_142247" style="mask-type:luminance" maskUnits="userSpaceOnUse" x="1" y="0" width="14" height="16">
<path d="M8 15C4.14 15 1 11.86 1 8.00003C1 4.14004 4.14 1.00004 8 1.00004C9.56 0.995036 11.08 1.51504 12.31 2.48504L11.695 3.27004C10.645 2.44504 9.34 1.99504 8.005 2.00004C4.695 2.00004 2.005 4.69004 2.005 8.00003C2.005 11.31 4.695 14 8.005 14C9.355 14 10.635 13.56 11.695 12.73L12.31 13.52C11.08 14.485 9.565 15.005 8 15Z" fill="white"/>
<path d="M7 0.5H13V4H7V0.5Z" fill="url(#paint0_linear_14835_142247)"/>
<path d="M7 12H13V15.5H7V12Z" fill="url(#paint1_linear_14835_142247)"/>
<path d="M10.0004 12.9998C8.57539 12.9998 7.22539 12.3948 6.27539 11.3348L7.02039 10.6698C7.78039 11.5198 8.86539 12.0048 10.0004 12.0048C12.2054 12.0048 14.0004 10.2098 14.0004 8.00477C14.0004 5.79977 12.2054 4.00477 10.0004 4.00477C8.86039 4.00477 7.78039 4.48977 7.02039 5.33977L6.27539 4.67477C7.22539 3.61477 8.58039 3.00977 10.0004 3.00977C12.7554 3.00977 15.0004 5.25477 15.0004 8.00977C15.0004 10.7648 12.7554 13.0098 10.0004 13.0098V12.9998Z" fill="white"/>
<path d="M6 2.5H10L12 5.5H6V2.5Z" fill="url(#paint2_linear_14835_142247)"/>
<path d="M6 13.5H10L12 10.5H6V13.5Z" fill="url(#paint3_linear_14835_142247)"/>
</mask>
<g mask="url(#mask0_14835_142247)">
<path d="M16 16H0V0H16V16Z" fill="url(#paint4_linear_14835_142247)"/>
</g>
<path d="M8 11C6.345 11 5 9.655 5 8C5 6.345 6.345 5 8 5C9.655 5 11 6.345 11 8C11 9.655 9.655 11 8 11ZM8 6C6.895 6 6 6.895 6 8C6 9.105 6.895 10 8 10C9.105 10 10 9.105 10 8C10 6.895 9.105 6 8 6Z" fill="#F4F4F4"/>
<defs>
<linearGradient id="paint0_linear_14835_142247" x1="6.96113" y1="0.838939" x2="12.9927" y2="4.32129" gradientUnits="userSpaceOnUse">
<stop offset="0.1" stop-opacity="0"/>
<stop offset="0.7"/>
</linearGradient>
<linearGradient id="paint1_linear_14835_142247" x1="6.93216" y1="15.2789" x2="12.952" y2="11.8033" gradientUnits="userSpaceOnUse">
<stop offset="0.1" stop-opacity="0"/>
<stop offset="0.7"/>
</linearGradient>
<linearGradient id="paint2_linear_14835_142247" x1="10.3733" y1="3.45695" x2="6.28207" y2="6.34635" gradientUnits="userSpaceOnUse">
<stop offset="0.1" stop-opacity="0"/>
<stop offset="0.7"/>
</linearGradient>
<linearGradient id="paint3_linear_14835_142247" x1="10.3991" y1="12.6487" x2="6.30678" y2="9.78359" gradientUnits="userSpaceOnUse">
<stop offset="0.1" stop-opacity="0"/>
<stop offset="0.7"/>
</linearGradient>
<linearGradient id="paint4_linear_14835_142247" x1="0" y1="16" x2="16" y2="0" gradientUnits="userSpaceOnUse">
<stop offset="0.1" stop-color="#3DDBD9"/>
<stop offset="0.9" stop-color="#4589FF"/>
</linearGradient>
</defs>
</svg>
