<svg width="16" height="16" viewBox="0 0 16 16" fill="none" xmlns="http://www.w3.org/2000/svg">
<mask id="mask0_14835_142236" style="mask-type:luminance" maskUnits="userSpaceOnUse" x="1" y="1" width="14" height="14">
<path d="M14 5.5H1.5V6.5H14V5.5Z" fill="url(#paint0_linear_14835_142236)"/>
<path d="M14 1H2C1.45 1 1 1.45 1 2V14C1 14.55 1.45 15 2 15H14C14.55 15 15 14.55 15 14V2C15 1.45 14.55 1 14 1ZM2 14V2H6V6H7V2H14V14H2Z" fill="white"/>
</mask>
<g mask="url(#mask0_14835_142236)">
<path d="M0 16L16 16L16 0L0 0L0 16Z" fill="url(#paint1_linear_14835_142236)"/>
</g>
<path d="M13 10.5H12V13H13V10.5Z" fill="#F4F4F4"/>
<path d="M11 8H10V13H11V8Z" fill="#F4F4F4"/>
<path d="M5.5 13C4.12 13 3 11.88 3 10.5H4C4 11.325 4.675 12 5.5 12C6.325 12 7 11.325 7 10.5C7 9.675 6.325 9 5.5 9V8C6.88 8 8 9.12 8 10.5C8 11.88 6.88 13 5.5 13Z" fill="#F4F4F4"/>
<defs>
<linearGradient id="paint0_linear_14835_142236" x1="1.5" y1="6" x2="14" y2="6" gradientUnits="userSpaceOnUse">
<stop offset="0.6" stop-color="white"/>
<stop offset="0.63" stop-color="#F6F6F6"/>
<stop offset="0.69" stop-color="#DDDDDD"/>
<stop offset="0.76" stop-color="#B5B5B5"/>
<stop offset="0.84" stop-color="#7E7E7E"/>
<stop offset="0.93" stop-color="#393939"/>
<stop offset="1"/>
</linearGradient>
<linearGradient id="paint1_linear_14835_142236" x1="0" y1="16" x2="16" y2="0" gradientUnits="userSpaceOnUse">
<stop offset="0.1" stop-color="#3DDBD9"/>
<stop offset="0.9" stop-color="#4589FF"/>
</linearGradient>
</defs>
</svg>
