<svg width="16" height="16" viewBox="0 0 16 16" fill="none" xmlns="http://www.w3.org/2000/svg">
<g clip-path="url(#clip0_14835_142261)">
<mask id="mask0_14835_142261" style="mask-type:luminance" maskUnits="userSpaceOnUse" x="1" y="0" width="14" height="16">
<path d="M11.0457 13.9999H6.0807V12.9999H11.0457L14.0007 7.99988L12.6507 5.71488L13.5107 5.20488L14.8607 7.48988C15.0457 7.80488 15.0457 8.19488 14.8607 8.50488L11.9057 13.5049C11.7257 13.8099 11.3957 13.9949 11.0457 13.9949V13.9999ZM2.4907 10.7949L1.1407 8.50988C0.955703 8.19488 0.955703 7.80488 1.1407 7.49488L4.0957 2.49488C4.2757 2.18988 4.6057 2.00488 4.9557 2.00488H9.9207V3.00488H4.9557L2.0007 8.00488L3.3507 10.2899L2.4907 10.7999V10.7949Z" fill="white"/>
<path d="M4.5 0.764648H10V4.49965H4.5V0.764648Z" fill="url(#paint0_linear_14835_142261)"/>
<path d="M12 15.235H6V11.5H12V15.235Z" fill="url(#paint1_linear_14835_142261)"/>
</mask>
<g mask="url(#mask0_14835_142261)">
<path d="M0 0H16V16H0V0Z" fill="url(#paint2_linear_14835_142261)"/>
</g>
<path d="M11 3.5C11.5523 3.5 12 3.05228 12 2.5C12 1.94772 11.5523 1.5 11 1.5C10.4477 1.5 10 1.94772 10 2.5C10 3.05228 10.4477 3.5 11 3.5Z" fill="#F4F4F4"/>
<path d="M5 14.5C5.55228 14.5 6 14.0523 6 13.5C6 12.9477 5.55228 12.5 5 12.5C4.44772 12.5 4 12.9477 4 13.5C4 14.0523 4.44772 14.5 5 14.5Z" fill="#F4F4F4"/>
<path d="M4.5 6.5H5.5V9.5H4.5V6.5ZM10.5 6.5H11.5V9.5H10.5V6.5ZM6.5 5.5H7.5V12H6.5V5.5ZM8.5 4.5H9.5V11H8.5V4.5Z" fill="#F4F4F4"/>
</g>
<defs>
<linearGradient id="paint0_linear_14835_142261" x1="4.5" y1="1.3024" x2="10" y2="1.3024" gradientUnits="userSpaceOnUse">
<stop offset="0.09" stop-opacity="0"/>
<stop offset="0.9"/>
</linearGradient>
<linearGradient id="paint1_linear_14835_142261" x1="12" y1="12.0616" x2="6" y2="12.0616" gradientUnits="userSpaceOnUse">
<stop offset="0.09" stop-opacity="0"/>
<stop offset="0.9"/>
</linearGradient>
<linearGradient id="paint2_linear_14835_142261" x1="0.18" y1="15.82" x2="15.815" y2="0.185" gradientUnits="userSpaceOnUse">
<stop offset="0.1" stop-color="#3DDBD9"/>
<stop offset="0.9" stop-color="#4589FF"/>
</linearGradient>
<clipPath id="clip0_14835_142261">
<rect width="16" height="16" fill="white"/>
</clipPath>
</defs>
</svg>
