<svg width="16" height="16" viewBox="0 0 16 16" fill="none" xmlns="http://www.w3.org/2000/svg">
<g clip-path="url(#clip0_14835_142289)">
<mask id="mask0_14835_142289" style="mask-type:luminance" maskUnits="userSpaceOnUse" x="0" y="0" width="16" height="16">
<path d="M15.4242 7H14.4142C13.9292 3.89 11.2442 1.5 7.99922 1.5C5.68922 1.5 3.66422 2.715 2.50922 4.535C3.11422 4.185 3.79922 4 4.49922 4C6.35922 4 7.91922 5.28 8.36922 7H7.32422C6.90922 5.835 5.80422 5 4.49922 5C3.55922 5 2.66922 5.445 2.10922 6.205L0.844219 5.785C1.79422 2.73 4.63422 0.5 7.99922 0.5C11.7942 0.5 14.9342 3.335 15.4242 7ZM13.8892 9.795C13.3292 10.55 12.4392 11 11.4992 11C10.1942 11 9.08922 10.165 8.67422 9H7.62922C8.07422 10.72 9.63922 12 11.4992 12C12.1992 12 12.8842 11.815 13.4892 11.465C12.3342 13.285 10.3092 14.5 7.99922 14.5C4.75422 14.5 2.06922 12.11 1.58422 9H0.574219C1.06422 12.665 4.20422 15.5 7.99922 15.5C11.3642 15.5 14.2042 13.27 15.1542 10.22L13.8892 9.8V9.795Z" fill="white"/>
<path d="M0 8.5H3.5V12.5H0V8.5Z" fill="url(#paint0_linear_14835_142289)"/>
<path d="M10.5 8.75H7.5V12.5L10.5 10.75V8.75Z" fill="url(#paint1_linear_14835_142289)"/>
<path d="M16 7.5H12.5V3.5H16V7.5Z" fill="url(#paint2_linear_14835_142289)"/>
<path d="M5.5 7.25H8.5V3.5L5.5 5.25V7.25Z" fill="url(#paint3_linear_14835_142289)"/>
</mask>
<g mask="url(#mask0_14835_142289)">
<path d="M0 0H16V16H0V0Z" fill="url(#paint4_linear_14835_142289)"/>
</g>
<path d="M15 9C15.5523 9 16 8.55228 16 8C16 7.44772 15.5523 7 15 7C14.4477 7 14 7.44772 14 8C14 8.55228 14.4477 9 15 9Z" fill="#F3F3F3"/>
<path d="M1 9C1.55228 9 2 8.55228 2 8C2 7.44772 1.55228 7 1 7C0.447715 7 0 7.44772 0 8C0 8.55228 0.447715 9 1 9Z" fill="#F3F3F3"/>
<path d="M8 9C8.55228 9 9 8.55228 9 8C9 7.44772 8.55228 7 8 7C7.44772 7 7 7.44772 7 8C7 8.55228 7.44772 9 8 9Z" fill="#F3F3F3"/>
</g>
<defs>
<linearGradient id="paint0_linear_14835_142289" x1="1.75" y1="12.5" x2="1.75" y2="8.5" gradientUnits="userSpaceOnUse">
<stop stop-opacity="0"/>
<stop offset="0.83"/>
</linearGradient>
<linearGradient id="paint1_linear_14835_142289" x1="9.435" y1="11.38" x2="7.81" y2="8.57" gradientUnits="userSpaceOnUse">
<stop stop-opacity="0"/>
<stop offset="0.7"/>
</linearGradient>
<linearGradient id="paint2_linear_14835_142289" x1="14.25" y1="3.5" x2="14.25" y2="7.5" gradientUnits="userSpaceOnUse">
<stop stop-opacity="0"/>
<stop offset="0.83"/>
</linearGradient>
<linearGradient id="paint3_linear_14835_142289" x1="6.565" y1="4.62" x2="8.19" y2="7.43" gradientUnits="userSpaceOnUse">
<stop stop-opacity="0"/>
<stop offset="0.7"/>
</linearGradient>
<linearGradient id="paint4_linear_14835_142289" x1="0" y1="16" x2="16" y2="0" gradientUnits="userSpaceOnUse">
<stop offset="0.1" stop-color="#C491FF"/>
<stop offset="0.9" stop-color="#2489FF"/>
</linearGradient>
<clipPath id="clip0_14835_142289">
<rect width="16" height="16" fill="white"/>
</clipPath>
</defs>
</svg>
