<svg width="16" height="16" viewBox="0 0 16 16" fill="none" xmlns="http://www.w3.org/2000/svg">
<mask id="mask0_14835_142275" style="mask-type:luminance" maskUnits="userSpaceOnUse" x="0" y="1" width="16" height="15">
<path d="M8 4.5C10.745 4.5 12.5 5.39 12.5 6C12.5 6.155 12.375 6.305 12.275 6.405L12.97 7.125C13.41 6.7 13.5 6.28 13.5 6C13.5 4.375 10.665 3.5 8 3.5C5.915 3.5 3.74 4.035 2.88 5.045L3.765 5.555C4.35 5.03 5.875 4.5 8 4.5ZM8 11.5C5.255 11.5 3.5 10.61 3.5 10C3.5 9.84 3.63 9.685 3.735 9.585L3.05 8.86C2.595 9.29 2.5 9.72 2.5 10C2.5 11.625 5.335 12.5 8 12.5C10.085 12.5 12.26 11.965 13.12 10.955L12.235 10.445C11.65 10.97 10.125 11.5 8 11.5Z" fill="white"/>
<path d="M6.5 12.655V9H2V11.925L6.5 12.655Z" fill="url(#paint0_linear_14835_142275)"/>
<path d="M9.5 3.40039V7.00039H14V4.12039L9.5 3.40039Z" fill="url(#paint1_linear_14835_142275)"/>
<path d="M8 14C4.17 14 1.5 12.55 1.5 11.25C1.5 9.95 4.17 8.5 8 8.5C12.205 8.5 15.5 6.855 15.5 4.75C15.5 2.645 12.205 1 8 1C4.45 1 1.555 2.175 0.74 3.81L1.605 4.31C2.12 3.145 4.6 2.005 8 2.005C11.83 2.005 14.5 3.455 14.5 4.755C14.5 6.055 11.83 7.505 8 7.505C3.795 7.505 0.5 9.15 0.5 11.255C0.5 13.36 3.795 15.005 8 15.005C11.55 15.005 14.445 13.83 15.26 12.195L14.395 11.695C13.88 12.86 11.4 14.005 8 14.005V14Z" fill="white"/>
<path d="M1 7L4.5 10.5L7 9V7H1Z" fill="url(#paint2_linear_14835_142275)"/>
<path d="M14.5 9L12 6L9 7V9H14.5Z" fill="url(#paint3_linear_14835_142275)"/>
<path d="M7 7H9V9H7V7Z" fill="black"/>
</mask>
<g mask="url(#mask0_14835_142275)">
<path d="M0 16V0H16V16H0Z" fill="url(#paint4_linear_14835_142275)"/>
</g>
<path d="M8 9C8.55228 9 9 8.55228 9 8C9 7.44772 8.55228 7 8 7C7.44772 7 7 7.44772 7 8C7 8.55228 7.44772 9 8 9Z" fill="white"/>
<defs>
<linearGradient id="paint0_linear_14835_142275" x1="5.76" y1="13.08" x2="3.055" y2="8.39" gradientUnits="userSpaceOnUse">
<stop offset="0.2" stop-opacity="0"/>
<stop offset="0.75"/>
</linearGradient>
<linearGradient id="paint1_linear_14835_142275" x1="10.255" y1="2.97039" x2="12.94" y2="7.61539" gradientUnits="userSpaceOnUse">
<stop offset="0.2" stop-opacity="0"/>
<stop offset="0.75"/>
</linearGradient>
<linearGradient id="paint2_linear_14835_142275" x1="1.555" y1="9.07" x2="7.15" y2="7.57" gradientUnits="userSpaceOnUse">
<stop offset="0.26" stop-opacity="0"/>
<stop offset="0.82"/>
</linearGradient>
<linearGradient id="paint3_linear_14835_142275" x1="14.21" y1="7.33" x2="8.875" y2="8.27" gradientUnits="userSpaceOnUse">
<stop offset="0.26" stop-opacity="0"/>
<stop offset="0.82"/>
</linearGradient>
<linearGradient id="paint4_linear_14835_142275" x1="0" y1="16" x2="16" y2="0" gradientUnits="userSpaceOnUse">
<stop offset="0.1" stop-color="#00C0BA"/>
<stop offset="0.9" stop-color="#0064FF"/>
</linearGradient>
</defs>
</svg>
